<mxfile host="34448dae-673b-4bd6-a9ba-57b226110815" modified="2020-09-30T07:07:36.475Z" agent="5.0 (Macintosh; Intel Mac OS X 10_15_7) AppleWebKit/537.36 (KHTML, like Gecko) Code/1.49.2 Chrome/83.0.4103.122 Electron/9.2.1 Safari/537.36" etag="rPHVWbftEcv_W_E9DwOV" version="13.1.3">
    <diagram id="PGa_qlCYg8pmCsjZJtMJ" name="第 1 页">
        <mxGraphModel dx="623" dy="617" grid="1" gridSize="10" guides="1" tooltips="1" connect="1" arrows="1" fold="1" page="1" pageScale="1" pageWidth="827" pageHeight="1169" math="0" shadow="0">
            <root>
                <mxCell id="0"/>
                <mxCell id="1" parent="0"/>
                <mxCell id="mURyflM2bXiE29OncrUb-1" value="" style="endArrow=classic;html=1;strokeWidth=2;" parent="1" edge="1">
                    <mxGeometry width="50" height="50" relative="1" as="geometry">
                        <mxPoint x="80" y="80" as="sourcePoint"/>
                        <mxPoint x="80" y="400" as="targetPoint"/>
                    </mxGeometry>
                </mxCell>
                <mxCell id="mURyflM2bXiE29OncrUb-2" value="" style="endArrow=classic;html=1;strokeWidth=3;" parent="1" edge="1">
                    <mxGeometry width="50" height="50" relative="1" as="geometry">
                        <mxPoint x="40" y="120" as="sourcePoint"/>
                        <mxPoint x="400" y="120" as="targetPoint"/>
                    </mxGeometry>
                </mxCell>
                <mxCell id="mURyflM2bXiE29OncrUb-3" value="&lt;font style=&quot;font-size: 14px&quot;&gt;x&lt;/font&gt;" style="text;html=1;align=center;verticalAlign=middle;resizable=0;points=[];autosize=1;" parent="1" vertex="1">
                    <mxGeometry x="380" y="120" width="20" height="20" as="geometry"/>
                </mxCell>
                <mxCell id="mURyflM2bXiE29OncrUb-4" value="&lt;font style=&quot;font-size: 14px&quot;&gt;y&lt;/font&gt;" style="text;html=1;align=center;verticalAlign=middle;resizable=0;points=[];autosize=1;" parent="1" vertex="1">
                    <mxGeometry x="55" y="380" width="20" height="20" as="geometry"/>
                </mxCell>
                <mxCell id="mURyflM2bXiE29OncrUb-5" value="" style="rounded=0;whiteSpace=wrap;html=1;strokeWidth=2;fillColor=#FF0000;" parent="1" vertex="1">
                    <mxGeometry x="160" y="200" width="160" height="80" as="geometry"/>
                </mxCell>
                <mxCell id="mURyflM2bXiE29OncrUb-6" value="" style="endArrow=classic;html=1;strokeWidth=2;dashed=1;" parent="1" edge="1">
                    <mxGeometry width="50" height="50" relative="1" as="geometry">
                        <mxPoint x="160" y="80" as="sourcePoint"/>
                        <mxPoint x="160" y="480" as="targetPoint"/>
                    </mxGeometry>
                </mxCell>
                <mxCell id="mURyflM2bXiE29OncrUb-7" value="" style="endArrow=classic;html=1;dashed=1;strokeWidth=2;" parent="1" edge="1">
                    <mxGeometry width="50" height="50" relative="1" as="geometry">
                        <mxPoint x="40" y="200" as="sourcePoint"/>
                        <mxPoint x="480" y="200" as="targetPoint"/>
                    </mxGeometry>
                </mxCell>
                <mxCell id="mURyflM2bXiE29OncrUb-8" value="&lt;font style=&quot;font-size: 14px&quot;&gt;x1&lt;/font&gt;" style="text;html=1;align=center;verticalAlign=middle;resizable=0;points=[];autosize=1;" parent="1" vertex="1">
                    <mxGeometry x="460" y="200" width="30" height="20" as="geometry"/>
                </mxCell>
                <mxCell id="mURyflM2bXiE29OncrUb-9" value="&lt;font style=&quot;font-size: 14px&quot;&gt;y1&lt;/font&gt;" style="text;html=1;align=center;verticalAlign=middle;resizable=0;points=[];autosize=1;" parent="1" vertex="1">
                    <mxGeometry x="130" y="460" width="30" height="20" as="geometry"/>
                </mxCell>
                <mxCell id="mURyflM2bXiE29OncrUb-10" value="" style="rounded=0;whiteSpace=wrap;html=1;dashed=1;strokeWidth=2;strokeColor=#E1D5E7;fillColor=#E1D5E7;" parent="1" vertex="1">
                    <mxGeometry x="240" y="280" width="160" height="80" as="geometry"/>
                </mxCell>
                <mxCell id="mURyflM2bXiE29OncrUb-15" value="&lt;font style=&quot;font-size: 14px&quot;&gt;0&lt;/font&gt;" style="text;html=1;align=center;verticalAlign=middle;resizable=0;points=[];autosize=1;" parent="1" vertex="1">
                    <mxGeometry x="60" y="120" width="20" height="20" as="geometry"/>
                </mxCell>
                <mxCell id="mURyflM2bXiE29OncrUb-16" value="&lt;font style=&quot;font-size: 14px&quot;&gt;虚线为新坐标系&lt;br&gt;每一个大网格代表单位为25&lt;br&gt;&lt;/font&gt;" style="text;html=1;align=center;verticalAlign=middle;resizable=0;points=[];autosize=1;" parent="1" vertex="1">
                    <mxGeometry x="230" y="395" width="190" height="30" as="geometry"/>
                </mxCell>
                <mxCell id="YX-Z8ot5_CYYgM4PyoWb-2" value="&lt;font style=&quot;font-size: 14px&quot;&gt;50&lt;/font&gt;" style="text;html=1;align=center;verticalAlign=middle;resizable=0;points=[];autosize=1;" parent="1" vertex="1">
                    <mxGeometry x="130" y="120" width="30" height="20" as="geometry"/>
                </mxCell>
                <mxCell id="YX-Z8ot5_CYYgM4PyoWb-3" value="&lt;font style=&quot;font-size: 14px&quot;&gt;50&lt;/font&gt;" style="text;html=1;align=center;verticalAlign=middle;resizable=0;points=[];autosize=1;" parent="1" vertex="1">
                    <mxGeometry x="50" y="200" width="30" height="20" as="geometry"/>
                </mxCell>
            </root>
        </mxGraphModel>
    </diagram>
</mxfile>
